<?xml version="1.0" encoding="UTF-8"?>
<svg width="200" height="200" viewBox="0 0 200 200" fill="none"
  xmlns="http://www.w3.org/2000/svg">
  <g transform="translate(60, 160) scale(0.045, -0.045)">
    <path d="M1021 1910 c-307 -43 -561 -266 -652 -572 -18 -58 -23 -102 -24 -219 l-2 -146 -43 -78 c-48 -87 -56 -142 -26 -187 36 -55 131 -73 175 -34 16 14 22 10 72 -52 144 -176 371 -283 603 -283 231 -1 410 73 572 237 78 79 84 83 117 77 45 -7 97 18 122 60 19 30 20 52 20 382 0 343 0 351 -22 392 -27 49 -72 85 -128 103 -27 9 -57 32 -94 72 -169 186 -439 283 -690 248z m-124 -382 c18 -10 41 -34 52 -51 18 -30 20 -55 25 -317 3 -157 5 -288 5 -292 1 -5 10 -8 21 -8 20 0 20 7 20 289 0 283 0 289 23 322 63 94 191 114 264 40 15 -15 50 -70 77 -122 58 -112 70 -127 92 -114 9 6 41 55 71 110 30 55 66 112 80 126 68 73 206 54 258 -36 l25 -42 0 -339 c0 -296 -2 -343 -16 -362 -35 -51 -101 -44 -128 13 -13 27 -16 77 -16 293 0 225 -2 261 -16 273 -25 21 -44 1 -99 -102 -58 -109 -93 -139 -162 -139 -88 0 -129 38 -199 182 -28 59 -56 80 -78 59 -7 -8 -13 -91 -16 -255 l-5 -243 -29 -37 c-42 -55 -82 -76 -144 -76 -95 0 -161 51 -181 140 -5 24 -10 135 -11 249 0 153 -4 209 -14 219 -29 29 -36 18 -216 -323 -109 -206 -142 -264 -156 -275 -42 -35 -124 5 -124 61 0 32 349 701 384 737 51 52 145 61 213 20z m632 -524 c28 -36 27 -79 -4 -109 -51 -52 -139 -16 -137 56 2 73 97 109 141 53z" fill="#000000"/>
  </g>
</svg> 
