<svg xmlns="http://www.w3.org/2000/svg" width="14" height="14" fill="none">
  <path d="M6 10.5c-2.48535 0-4.5-2.01465-4.5-4.5S3.51465 1.5 6 1.5s4.5 2.01465 4.5 4.5-2.01465 4.5-4.5 4.5Zm0-.9c.95478 0 1.87045-.37928 2.54558-1.05442C9.22072 7.87045 9.6 6.95478 9.6 6c0-.95478-.37928-1.87045-1.05442-2.54558C7.87045 2.77928 6.95478 2.4 6 2.4c-.95478 0-1.87045.37928-2.54558 1.05442C2.77928 4.12955 2.4 5.04522 2.4 6c0 .95478.37928 1.87045 1.05442 2.54558C4.12955 9.22072 5.04522 9.6 6 9.6Zm-.45-2.25h.9v.9h-.9v-.9Zm0-3.6h.9v2.7h-.9v-2.7Z" fill="#FB3748"/>
</svg>
